<svg xmlns="http://www.w3.org/2000/svg" width="1584" height="396" viewBox="0 0 1584 396" role="img" aria-labelledby="title desc">
  <title id="title">Alex Gerlitz LinkedIn banner</title>
  <desc id="desc">LinkedIn cover image for remote AI workflow, backend automation, integrations, Docker/CI handoff, and DriveDesk AI Operator review path.</desc>
  <rect width="1584" height="396" fill="#f7f8fa"/>
  <path d="M0 0h1584v396H0z" fill="#f7f8fa"/>
  <path d="M1030 0h554v396h-554z" fill="#eef4ff"/>
  <path d="M1170 0h414v396h-414z" fill="#e9f7f4"/>
  <rect x="318" y="48" width="1040" height="300" rx="24" fill="#ffffff" stroke="#d8e0e7" stroke-width="2"/>
  <rect x="352" y="78" width="9" height="240" rx="4.5" fill="#0f766e"/>
  <text x="392" y="106" font-family="Inter, Arial, sans-serif" font-size="22" font-weight="780" fill="#0b4f4a" letter-spacing="0">
    REMOTE AI AUTOMATION / BACKEND / PLATFORM
  </text>
  <text x="392" y="169" font-family="Inter, Arial, sans-serif" font-size="52" font-weight="820" fill="#18202a" letter-spacing="0">
    DriveDesk AI Operator
  </text>
  <text x="392" y="215" font-family="Inter, Arial, sans-serif" font-size="28" font-weight="700" fill="#18202a" letter-spacing="0">
    RAG + LLM workflows + CRM/ERP integrations
  </text>
  <text x="392" y="258" font-family="Inter, Arial, sans-serif" font-size="21" font-weight="560" fill="#52616f" letter-spacing="0">
    FastAPI / PostgreSQL / Docker / n8n / Telegram / CI / runbooks
  </text>
  <g transform="translate(392 289)">
    <rect x="0" y="0" width="150" height="38" rx="10" fill="#e9f7f4"/>
    <text x="18" y="25" font-family="Inter, Arial, sans-serif" font-size="16" font-weight="760" fill="#0b4f4a">Review path</text>
    <rect x="166" y="0" width="126" height="38" rx="10" fill="#eef4ff"/>
    <text x="184" y="25" font-family="Inter, Arial, sans-serif" font-size="16" font-weight="760" fill="#1d4ed8">Live smoke</text>
    <rect x="308" y="0" width="132" height="38" rx="10" fill="#fff4e5"/>
    <text x="326" y="25" font-family="Inter, Arial, sans-serif" font-size="16" font-weight="760" fill="#b45309">PDF resume</text>
    <rect x="456" y="0" width="132" height="38" rx="10" fill="#f2f4f7"/>
    <text x="474" y="25" font-family="Inter, Arial, sans-serif" font-size="16" font-weight="760" fill="#18202a">GitHub CI</text>
  </g>
  <g transform="translate(1078 82)">
    <rect x="0" y="0" width="194" height="48" rx="12" fill="#0f766e"/>
    <text x="22" y="31" font-family="Inter, Arial, sans-serif" font-size="17" font-weight="760" fill="#ffffff">Business system</text>
    <path d="M194 24h45" stroke="#0f766e" stroke-width="4" stroke-linecap="round"/>
    <path d="M231 16l14 8-14 8" fill="none" stroke="#0f766e" stroke-width="4" stroke-linecap="round" stroke-linejoin="round"/>
    <rect x="252" y="0" width="174" height="48" rx="12" fill="#1d4ed8"/>
    <text x="274" y="31" font-family="Inter, Arial, sans-serif" font-size="17" font-weight="760" fill="#ffffff">AI workflow</text>
  </g>
  <g transform="translate(1078 158)">
    <rect x="0" y="0" width="126" height="38" rx="10" fill="#ffffff" stroke="#d8e0e7"/>
    <text x="20" y="25" font-family="Inter, Arial, sans-serif" font-size="15" font-weight="720" fill="#18202a">Documents</text>
    <rect x="140" y="0" width="126" height="38" rx="10" fill="#ffffff" stroke="#d8e0e7"/>
    <text x="164" y="25" font-family="Inter, Arial, sans-serif" font-size="15" font-weight="720" fill="#18202a">Calls</text>
    <rect x="280" y="0" width="126" height="38" rx="10" fill="#ffffff" stroke="#d8e0e7"/>
    <text x="303" y="25" font-family="Inter, Arial, sans-serif" font-size="15" font-weight="720" fill="#18202a">CRM leads</text>
  </g>
  <g transform="translate(1078 218)">
    <rect x="0" y="0" width="126" height="38" rx="10" fill="#ffffff" stroke="#d8e0e7"/>
    <text x="35" y="25" font-family="Inter, Arial, sans-serif" font-size="15" font-weight="720" fill="#18202a">RAG</text>
    <rect x="140" y="0" width="126" height="38" rx="10" fill="#ffffff" stroke="#d8e0e7"/>
    <text x="162" y="25" font-family="Inter, Arial, sans-serif" font-size="15" font-weight="720" fill="#18202a">Approval</text>
    <rect x="280" y="0" width="126" height="38" rx="10" fill="#ffffff" stroke="#d8e0e7"/>
    <text x="304" y="25" font-family="Inter, Arial, sans-serif" font-size="15" font-weight="720" fill="#18202a">CRM action</text>
  </g>
</svg>
